<svg width="66" height="49" viewBox="0 0 66 49" fill="none" xmlns="http://www.w3.org/2000/svg">
<path d="M66 0L63.9567 5.44444H58.652L49.0985 38.1111H12.6912L0 8.16667H46.233L44.682 13.6111H8.272L16.3488 32.6667H45.0257L54.4638 0H66ZM23.375 40.8333C21.098 40.8333 19.25 42.6627 19.25 44.9167C19.25 47.1734 21.098 49 23.375 49C25.652 49 27.5 47.1734 27.5 44.9167C27.5 42.6627 25.652 40.8333 23.375 40.8333ZM42.35 21.7778L37.125 40.8333C34.848 40.8333 33 42.6599 33 44.9167C33 47.1734 34.848 49 37.125 49C39.402 49 41.25 47.1734 41.25 44.9167C41.25 42.6627 39.402 40.8333 37.125 40.8333L42.35 21.7778Z" fill="#FFCA94"/>
</svg>
