<svg width="154" height="57" viewBox="0 0 154 57" fill="none" xmlns="http://www.w3.org/2000/svg">
<g clip-path="url(#clip0_420_25)">
<path d="M79.5072 18.8796L86.8339 18.4077C87.0011 19.6015 87.3075 20.49 87.809 21.1285C88.6169 22.1281 89.7312 22.6278 91.2077 22.6278C92.2941 22.6278 93.1577 22.3779 93.7428 21.8504C94.2999 21.434 94.6342 20.7676 94.6342 20.0735C94.6342 19.4072 94.3278 18.7686 93.7985 18.3521C93.2413 17.8524 91.932 17.3526 89.8705 16.9084C86.4996 16.1587 84.076 15.1592 82.6552 13.8821C81.2344 12.6882 80.4266 10.9391 80.4823 9.07887C80.4823 7.80171 80.8723 6.52456 81.5966 5.46951C82.4323 4.27565 83.5745 3.33167 84.9396 2.80415C86.4161 2.16557 88.4776 1.8324 91.0684 1.8324C94.2442 1.8324 96.6679 2.41545 98.3394 3.60931C100.011 4.77541 101.014 6.66338 101.32 9.24545L94.0771 9.66191C93.8821 8.55134 93.492 7.74618 92.8513 7.21866C92.2106 6.69114 91.3748 6.44126 90.2884 6.44126C89.3969 6.44126 88.7283 6.63561 88.2826 6.99655C87.8647 7.32972 87.5861 7.82947 87.614 8.38476C87.614 8.80122 87.8368 9.18992 88.1711 9.4398C88.5333 9.77297 89.3969 10.0784 90.7619 10.356C94.1328 11.0779 96.5286 11.7998 98.0051 12.5494C99.4815 13.299 100.54 14.2153 101.181 15.2981C101.849 16.4086 102.184 17.6858 102.156 18.9907C102.156 20.5455 101.71 22.1003 100.819 23.4052C99.8994 24.7657 98.6179 25.8207 97.1136 26.4593C95.5257 27.1534 93.5199 27.5143 91.1241 27.5143C86.8897 27.5143 83.9645 26.7092 82.3209 25.0711C80.6773 23.433 79.7022 21.3784 79.5072 18.8796ZM1.75507 27.0979V2.27663H14.5977C16.9656 2.27663 18.8043 2.47098 20.0579 2.88744C21.2836 3.27614 22.3701 4.0813 23.0944 5.16411C23.9023 6.35797 24.2923 7.74618 24.2645 9.18992C24.348 11.6332 23.0944 13.9654 20.9493 15.187C20.1136 15.659 19.1943 15.9922 18.2471 16.1587C18.9436 16.3531 19.64 16.6863 20.2529 17.075C20.7265 17.4637 21.1165 17.9079 21.4787 18.3799C21.8965 18.8519 22.2587 19.3794 22.5651 19.9347L26.2981 27.1256H17.5507L13.4276 19.4905C12.8983 18.5187 12.4526 17.8801 12.0347 17.5747C11.4776 17.186 10.809 16.9917 10.1404 16.9917H9.47178V27.0701H1.75507V27.0979ZM9.47178 12.3273H12.7312C13.4276 12.2718 14.0962 12.1607 14.7648 11.9941C15.2663 11.9108 15.712 11.6332 16.0185 11.2167C16.7706 10.2172 16.6592 8.80122 15.7399 7.94053C15.2384 7.52407 14.2634 7.30195 12.8705 7.30195H9.47178V12.3273ZM0 48.3653L7.3267 47.8933C7.49385 49.0871 7.80029 49.9756 8.30174 50.6142C9.08177 51.6137 10.224 52.1412 11.7004 52.1412C12.7869 52.1412 13.6505 51.8913 14.2355 51.3638C14.7927 50.9196 15.127 50.281 15.127 49.5869C15.127 48.9206 14.8205 48.282 14.2912 47.8655C13.7341 47.3658 12.4247 46.866 10.3354 46.4218C6.96454 45.6721 4.54088 44.6726 3.12012 43.3955C1.69935 42.2016 0.891462 40.4525 0.947178 38.5923C0.947178 37.3151 1.33719 36.0379 2.06151 34.9829C2.89725 33.789 4.03944 32.8451 5.40449 32.3175C6.88097 31.679 8.94248 31.3458 11.5333 31.3458C14.7091 31.3458 17.1328 31.9288 18.8043 33.1227C20.4758 34.3166 21.4508 36.1768 21.7572 38.7588L14.5141 39.1753C14.3191 38.0647 13.9291 37.2596 13.2884 36.7321C12.6755 36.2045 11.8119 35.9547 10.7254 35.9824C9.83394 35.9824 9.16534 36.1768 8.71961 36.5655C8.27388 36.8986 8.02315 37.3984 8.05101 37.9537C8.05101 38.3701 8.27388 38.7588 8.60818 39.0087C8.97033 39.3419 9.83394 39.6473 11.199 39.9249C14.5698 40.6468 16.9656 41.3687 18.4421 42.1183C19.9186 42.868 20.9772 43.7842 21.6179 44.867C22.2865 45.9775 22.6208 47.2547 22.6208 48.5319C22.6208 50.0867 22.1473 51.6137 21.2836 52.9186C20.3643 54.2791 19.0829 55.3341 17.5785 55.9727C15.9906 56.6668 13.9848 57.0277 11.589 57.0277C7.35456 57.0277 4.42945 56.2226 2.78582 54.5845C1.14219 52.9186 0.222865 50.8641 0 48.3653H0Z" fill="white"/>
<path d="M37.0516 46.4218L43.7933 48.4486C43.4311 50.1422 42.6789 51.7525 41.6482 53.1685C40.701 54.4179 39.4474 55.3897 38.0266 56.0282C36.578 56.6668 34.7393 57 32.5107 57C29.8084 57 27.5798 56.6113 25.8804 55.8339C24.1532 55.0565 22.6768 53.6683 21.4231 51.697C20.1695 49.7258 19.5566 47.1992 19.5566 44.1174C19.5566 40.0083 20.6431 36.8431 22.8439 34.6498C25.0447 32.4564 28.137 31.3458 32.1485 31.3458C35.2965 31.3458 37.748 31.9844 39.5588 33.2338C41.3417 34.5109 42.6789 36.4544 43.5704 39.0643L36.773 40.5636C36.6058 39.9805 36.3551 39.3975 36.0208 38.8977C35.603 38.3147 35.0736 37.8704 34.4329 37.5373C33.7922 37.2041 33.0679 37.0653 32.3435 37.0653C30.5885 37.0653 29.2513 37.7594 28.332 39.1753C27.6355 40.2026 27.2734 41.8407 27.2734 44.0618C27.2734 46.8105 27.6912 48.6985 28.527 49.7258C29.3627 50.753 30.5328 51.2528 32.065 51.2528C33.5414 51.2528 34.6558 50.8363 35.4079 50.0312C36.1601 49.1705 36.7173 47.9766 37.0516 46.4218ZM52.7914 31.7623H60.4803V40.4525H68.8935V31.7623H76.638V56.5835H68.8935V46.5329H60.4803V56.5835H52.7914V31.7623V31.7623Z" fill="white"/>
<path d="M75.5791 44.173C75.5791 40.1194 76.7213 36.9543 78.9778 34.7054C81.2343 32.4564 84.4101 31.3181 88.4496 31.3181C92.6005 31.3181 95.7763 32.4287 98.0328 34.6498C100.289 36.871 101.404 39.9806 101.404 43.9786C101.404 46.8939 100.902 49.2538 99.9272 51.114C98.98 52.9465 97.5035 54.4457 95.6927 55.4452C93.8262 56.4725 91.514 57 88.756 57C85.9423 57 83.6301 56.5558 81.7915 55.6674C79.8971 54.7234 78.3371 53.2519 77.3063 51.4472C76.1641 49.5037 75.5791 47.0882 75.5791 44.173ZM83.268 44.2007C83.268 46.6995 83.7415 48.5042 84.6609 49.6148C85.5802 50.6976 86.8617 51.2528 88.4774 51.2528C90.1211 51.2528 91.4025 50.7253 92.3219 49.6425C93.2412 48.5597 93.6869 46.644 93.6869 43.8676C93.6869 41.5354 93.2133 39.814 92.2662 38.7589C91.319 37.6761 90.0375 37.1486 88.4217 37.1486C87.001 37.0931 85.6359 37.7039 84.6887 38.7867C83.7416 39.8695 83.268 41.6742 83.268 44.2007V44.2007ZM109.287 44.173C109.287 40.1194 110.43 36.9543 112.686 34.7054C114.943 32.4564 118.119 31.3181 122.158 31.3181C126.309 31.3181 129.513 32.4287 131.741 34.6498C133.97 36.871 135.112 39.9806 135.112 43.9786C135.112 46.8939 134.611 49.2538 133.636 51.114C132.688 52.9465 131.212 54.4457 129.401 55.4452C127.535 56.4725 125.222 57 122.464 57C119.651 57 117.339 56.5558 115.5 55.6674C113.606 54.7234 112.045 53.2519 111.015 51.4472C109.873 49.5037 109.287 47.0882 109.287 44.173V44.173ZM116.976 44.2007C116.976 46.6995 117.45 48.5042 118.369 49.6148C119.289 50.6976 120.57 51.2528 122.186 51.2528C123.829 51.2528 125.111 50.7253 126.03 49.6425C126.95 48.5597 127.395 46.644 127.395 43.8676C127.395 41.5354 126.922 39.814 125.975 38.7589C125.027 37.6761 123.746 37.1486 122.13 37.1486C120.709 37.0931 119.316 37.7039 118.397 38.7867C117.45 39.8695 116.976 41.6742 116.976 44.2007V44.2007Z" fill="white"/>
<path d="M134.304 31.7623H141.993V50.4754H154V56.5836H134.276V31.7623H134.304Z" fill="white"/>
<path d="M125.83 30.3298C133.571 24.516 135.958 14.6606 131.161 8.31723C126.365 1.97384 116.201 1.54454 108.46 7.35838C100.719 13.1722 98.3321 23.0276 103.129 29.371C107.925 35.7144 118.089 36.1437 125.83 30.3298Z" stroke="white" stroke-width="2" stroke-miterlimit="10"/>
<path d="M109.316 17.0195L112.102 15.076L115.528 19.9347C116.113 20.7121 116.559 21.5451 116.893 22.4613C117.088 23.1554 117.032 23.905 116.754 24.5714C116.392 25.4043 115.807 26.0984 115.027 26.5982C114.107 27.2367 113.327 27.5977 112.659 27.7087C112.018 27.8198 111.349 27.7087 110.736 27.4311C110.068 27.0979 109.483 26.6259 109.037 26.0151L111.433 23.794C111.628 24.0994 111.879 24.377 112.157 24.5991C112.352 24.738 112.575 24.8213 112.826 24.8213C113.021 24.8213 113.216 24.738 113.355 24.6269C113.634 24.4603 113.829 24.1271 113.801 23.794C113.717 23.322 113.522 22.85 113.216 22.4891L109.316 17.0195V17.0195ZM117.673 20.1013L120.208 18.1023C120.487 18.4355 120.849 18.6854 121.239 18.8242C121.796 18.9908 122.381 18.8797 122.855 18.5188C123.189 18.2967 123.468 17.9912 123.579 17.6025C123.746 17.1028 123.468 16.5475 122.966 16.3809C122.883 16.3532 122.799 16.3254 122.715 16.3254C122.381 16.2976 121.796 16.4365 120.933 16.7974C119.512 17.3804 118.397 17.6025 117.562 17.5193C116.754 17.436 116.002 17.0195 115.556 16.3254C115.222 15.8534 115.054 15.2981 115.027 14.7428C115.027 14.1043 115.194 13.4657 115.556 12.9382C116.085 12.1885 116.726 11.5499 117.506 11.0502C118.676 10.245 119.707 9.85632 120.598 9.85632C121.49 9.85632 122.325 10.2728 123.105 11.1335L120.598 13.1047C120.097 12.4662 119.15 12.3273 118.509 12.8271L118.425 12.9104C118.147 13.077 117.952 13.3269 117.84 13.6323C117.757 13.8544 117.812 14.1043 117.952 14.2986C118.063 14.4374 118.23 14.5485 118.425 14.5485C118.648 14.5762 119.038 14.4652 119.595 14.2153C120.988 13.6323 122.047 13.2991 122.771 13.188C123.384 13.077 124.025 13.1325 124.61 13.3824C125.139 13.6045 125.585 13.9932 125.891 14.4652C126.281 15.0205 126.504 15.6868 126.532 16.3809C126.56 17.1028 126.365 17.7969 125.975 18.4077C125.473 19.1573 124.833 19.7959 124.081 20.2957C122.548 21.3507 121.295 21.795 120.292 21.6284C119.205 21.4618 118.314 20.9065 117.673 20.1013V20.1013Z" fill="white"/>
</g>
<defs>
<clipPath id="clip0_420_25">
<rect width="154" height="57" fill="white"/>
</clipPath>
</defs>
</svg>
